<?xml version="1.0" encoding="UTF-8" standalone="no"?>
<!-- Created with Inkscape (http://www.inkscape.org/) -->

<svg
   width="135.46666mm"
   height="135.46666mm"
   viewBox="0 0 135.46666 135.46666"
   version="1.1"
   id="svg1"
   inkscape:version="1.4 (86a8ad7, 2024-10-11)"
   sodipodi:docname="inkscape-logo.svg"
   inkscape:export-filename="inkscape-logo.png"
   inkscape:export-xdpi="96"
   inkscape:export-ydpi="96"
   xmlns:inkscape="http://www.inkscape.org/namespaces/inkscape"
   xmlns:sodipodi="http://sodipodi.sourceforge.net/DTD/sodipodi-0.dtd"
   xmlns="http://www.w3.org/2000/svg"
   xmlns:svg="http://www.w3.org/2000/svg">
  <sodipodi:namedview
     id="namedview1"
     pagecolor="#505050"
     bordercolor="#eeeeee"
     borderopacity="1"
     inkscape:showpageshadow="0"
     inkscape:pageopacity="0"
     inkscape:pagecheckerboard="0"
     inkscape:deskcolor="#505050"
     inkscape:document-units="mm"
     inkscape:zoom="0.70710678"
     inkscape:cx="110.30866"
     inkscape:cy="355.67471"
     inkscape:window-width="1920"
     inkscape:window-height="1057"
     inkscape:window-x="1912"
     inkscape:window-y="574"
     inkscape:window-maximized="1"
     inkscape:current-layer="svg1" />
  <defs
     id="defs1" />
  <g
     id="g24"
     inkscape:label="solid"
     style="display:none"
     transform="matrix(1.2903801,0,0,1.583153,-60.258479,-95.036451)">
    <path
       id="path14"
       style="font-weight:bold;font-size:108.689px;font-family:Arial;-inkscape-font-specification:'Arial Bold';display:inline;fill:#000000;fill-opacity:1;stroke:#000000;stroke-width:1.117;stroke-linecap:round;stroke-dasharray:none;stroke-opacity:1"
       inkscape:label="solid-m"
       d="M 99.093708,72.433082 C 95.317335,86.72347 91.565446,101.0263 87.80545,115.32428 l -11.350035,-42.702118 -30.037324,0.286723 0.110647,84.957645 21.750354,-0.006 -0.03596,-36.11269 9.051353,36.10979 20.710737,-0.0255 9.089618,-36.13876 c 0.0491,6.1867 0.0609,23.46673 0.0609,23.46673 0.0504,6.46353 5.58117,12.31186 11.26566,12.6821 0,0 6.95579,-0.0746 10.41323,-0.0118 -0.0175,-24.19342 0.0935,-48.38797 0.0538,-72.580897 -1.53772,-10.813956 -9.27594,-12.864939 -13.31654,-12.872976 z"
       transform="scale(1.120897,0.89214264)"
       sodipodi:nodetypes="cccccccccccccccc" />
    <path
       id="path15"
       style="display:inline;fill:#c10007;fill-opacity:1;stroke:#dc2323;stroke-width:1.11702;stroke-linecap:round;stroke-opacity:1"
       inkscape:label="solid-one"
       d="m 110.99372,64.677049 -7.53017,22.763017 16.62011,0.122471 -0.13653,40.339673 c -0.55064,7.32872 6.49154,12.80895 13.5106,12.86529 3.65889,-0.0475 7.35055,-0.0104 11.01102,-7.8e-4 l 0.14829,-63.702897 c -0.30417,-7.308288 -6.69238,-12.175345 -13.9951,-12.445978 z"
       sodipodi:nodetypes="ccccccccc" />
  </g>
  <g
     id="g23"
     inkscape:label="outlined"
     style="display:inline"
     transform="matrix(1.2903801,0,0,1.583153,-60.258479,-95.036451)">
    <path
       style="-inkscape-font-specification:'Arial Bold';display:inline;stroke-linecap:square"
       d="m 111.07384,64.620641 c -4.23293,12.749064 -8.43841,25.509229 -12.652975,38.265069 l -12.72222,-38.096383 -33.668746,0.255798 0.124024,75.794335 24.379906,-0.005 -0.04031,-32.21767 10.145634,32.21508 23.214607,-0.0228 10.18852,-32.24093 c 0.055,5.51942 0.0683,20.93567 0.0683,20.93567 0.0565,5.7664 6.25591,10.98394 12.62764,11.31425 0,0 7.79673,-0.0666 11.67216,-0.0105 -0.0196,-21.58398 0.1048,-43.168972 0.0603,-64.752513 -1.72362,-9.647592 -10.39737,-11.477361 -14.92647,-11.484531 z"
       id="path20"
       inkscape:label="m-fill" />
    <path
       style="-inkscape-font-specification:'Arial Bold';display:inline;fill:#ffffff;stroke-linecap:square"
       d="m 129.54461,64.07222 -18.95236,0.05227 -0.1226,0.369403 c -4.03168,12.142948 -8.03861,24.294637 -12.051829,36.443687 l -12.240108,-36.651037 -34.774077,0.264855 0.124787,76.786992 25.631763,-0.007 -0.03721,-28.66531 9.028475,28.66357 24.191229,-0.0227 9.08758,-28.75766 c 0.0325,6.77399 0.0547,16.9542 0.0547,16.9542 v 0.002 0.002 c 0.0593,6.04826 6.44003,11.45763 13.21214,11.80869 h 0.0241 0.0241 c 4.6823,-0.0378 8.97549,-0.0479 12.29047,-0.002 -0.009,-21.75358 0.0901,-43.506999 0.0613,-65.260588 v -0.03485 l -0.007,-0.03485 c -0.88164,-4.934782 -3.58303,-7.952661 -6.66846,-9.69334 -3.08544,-1.740678 -6.50775,-2.214408 -8.87741,-2.218159 z m -0.002,0.996691 c 2.15943,0.0034 5.34034,0.447305 8.15496,2.035201 2.80961,1.585064 5.30105,4.300783 6.14743,8.998094 0.0438,21.399697 -0.0786,42.802474 -0.0613,64.206384 -4.0412,-0.041 -10.96258,0.01 -11.01193,0.0104 -5.96787,-0.31292 -11.97811,-5.33438 -12.03433,-10.81548 0,0 -0.0128,-15.41307 -0.0678,-20.93922 l -1.23475,-0.11849 -10.06836,31.86448 -22.238422,0.0227 -10.026774,-31.83834 -1.232549,0.12198 0.03941,31.71984 -23.129447,0.005 -0.122598,-74.802327 32.562934,-0.24743 13.205568,39.543527 C 102.7976,91.595063 107.16505,78.352637 111.55552,65.117816 Z"
       id="path21"
       sodipodi:nodetypes="ccccccccccccccscccccccscccsccccccccccccccccc"
       inkscape:label="m-outline" />
    <path
       style="display:inline;fill:#c10007;stroke-linecap:round;fill-opacity:1"
       d="m 110.99372,64.677049 -7.53017,22.763017 16.62011,0.122471 -0.13653,40.339673 c -0.55064,7.32872 6.49154,12.80895 13.5106,12.86529 3.65889,-0.0475 7.35055,-0.0104 11.01102,-7.8e-4 l 0.14829,-63.702897 c -0.30417,-7.308288 -6.69238,-12.175345 -13.9951,-12.445978 z"
       id="path22"
       inkscape:label="one-fill" />
    <path
       style="fill:#ffffff;stroke-linecap:round"
       d="m 130.63086,64.058594 -20.04102,0.06055 -7.89648,23.873046 16.83008,0.125 -0.13477,39.7832 0.002,-0.0391 c -0.28943,3.85212 1.42693,7.2298 4.10156,9.61719 2.67462,2.38738 6.30756,3.81833 9.96093,3.84765 h 0.006 0.006 c 3.85339,-0.0539 7.70705,0 11.56055,0 l 0.15039,-64.273433 v -0.01172 c -0.31725,-7.622615 -6.99488,-12.701105 -14.5332,-12.980469 z m -0.0293,1.117187 c 7.06712,0.261902 13.16595,4.918148 13.45703,11.91211 l -0.14648,63.121089 c -3.47177,-0.0115 -6.97144,-0.045 -10.44922,0 -3.36569,-0.027 -6.76299,-1.36545 -9.22656,-3.56445 -2.46357,-2.19899 -3.99364,-5.22457 -3.73242,-8.70117 l 0.002,-0.0195 0.13867,-40.916018 -16.41015,-0.121093 7.1621,-21.652344 z"
       id="path23"
       inkscape:label="one-outline"
       sodipodi:nodetypes="ccccccsccccccccccccscccccc" />
  </g>
</svg>
