<svg xmlns="http://www.w3.org/2000/svg" viewBox="0 0 135.47 135.47">
  <g transform="matrix(1.2904 0 0 1.5832 -60.258 -95.036)">
    <path
      d="m111.07 64.621c-4.2329 12.749-8.4384 25.509-12.653 38.265l-12.722-38.096-33.669 0.2558 0.12402 75.794 24.38-5e-3 -0.04031-32.218 10.146 32.215 23.215-0.0228 10.189-32.241c0.055 5.5194 0.0683 20.936 0.0683 20.936 0.0565 5.7664 6.2559 10.984 12.628 11.314 0 0 7.7967-0.0666 11.672-0.0105-0.0196-21.584 0.1048-43.169 0.0603-64.753-1.7236-9.6476-10.397-11.477-14.926-11.485z"
      fill="#000000"
      stroke="#ffffff"
      stroke-width="1.75"
      stroke-linejoin="miter"
      stroke-miterlimit="3"
      stroke-linecap="square"
      vector-effect="non-scaling-stroke"
    />
    <path
      d="m110.99 64.677-7.5302 22.763 16.62 0.12247-0.13653 40.34c-0.55064 7.3287 6.4915 12.809 13.511 12.865 3.6589-0.0475 7.3506-0.0104 11.011-7.8e-4l0.14829-63.703c-0.30417-7.3083-6.6924-12.175-13.995-12.446z"
      fill="#c10007"
      stroke="#ffffff"
      stroke-width="1.75"
      stroke-linejoin="miter"
      stroke-miterlimit="3"
      stroke-linecap="butt"
      vector-effect="non-scaling-stroke"
    />

  </g>
</svg>