<?xml version="1.0" encoding="UTF-8"?>
<!-- Created with Inkscape (http://www.inkscape.org/) -->
<svg width="135.47mm" height="135.47mm" version="1.1" viewBox="0 0 135.47 135.47" xmlns="http://www.w3.org/2000/svg">
 <g transform="matrix(1.2904 0 0 1.5832 -60.258 -95.036)" display="none" stroke-linecap="round">
  <path transform="scale(1.1209 .89214)" d="m99.094 72.433c-3.7764 14.29-7.5283 28.593-11.288 42.891l-11.35-42.702-30.037 0.28672 0.11065 84.958 21.75-6e-3 -0.03596-36.113 9.0514 36.11 20.711-0.0255 9.0896-36.139c0.0491 6.1867 0.0609 23.467 0.0609 23.467 0.0504 6.4635 5.5812 12.312 11.266 12.682 0 0 6.9558-0.0746 10.413-0.0118-0.0175-24.193 0.0935-48.388 0.0538-72.581-1.5377-10.814-9.2759-12.865-13.317-12.873z" display="inline" stroke="#000" stroke-width="1.117"/>
  <path d="m110.99 64.677-7.5302 22.763 16.62 0.12247-0.13653 40.34c-0.55064 7.3287 6.4915 12.809 13.511 12.865 3.6589-0.0475 7.3506-0.0104 11.011-7.8e-4l0.14829-63.703c-0.30417-7.3083-6.6924-12.175-13.995-12.446z" display="inline" fill="#db2525" stroke="#dc2323" stroke-width="1.117"/>
 </g>
 <g transform="matrix(1.2904 0 0 1.5832 -60.258 -95.036)">
  <path d="m111.07 64.621c-4.2329 12.749-8.4384 25.509-12.653 38.265l-12.722-38.096-33.669 0.2558 0.12402 75.794 24.38-5e-3 -0.04031-32.218 10.146 32.215 23.215-0.0228 10.189-32.241c0.055 5.5194 0.0683 20.936 0.0683 20.936 0.0565 5.7664 6.2559 10.984 12.628 11.314 0 0 7.7967-0.0666 11.672-0.0105-0.0196-21.584 0.1048-43.169 0.0603-64.753-1.7236-9.6476-10.397-11.477-14.926-11.485z" stroke-linecap="square"/>
  <path d="m129.54 64.072-18.952 0.05227-0.1226 0.3694c-4.0317 12.143-8.0386 24.295-12.052 36.444l-12.24-36.651-34.774 0.26486 0.12479 76.787 25.632-7e-3 -0.03721-28.665 9.0285 28.664 24.191-0.0227 9.0876-28.758c0.0325 6.774 0.0547 16.954 0.0547 16.954v4e-3c0.0593 6.0483 6.44 11.458 13.212 11.809h0.0482c4.6823-0.0378 8.9755-0.0479 12.29-2e-3 -9e-3 -21.754 0.0901-43.507 0.0613-65.261v-0.03485l-7e-3 -0.03485c-0.88164-4.9348-3.583-7.9527-6.6685-9.6933-3.0854-1.7407-6.5078-2.2144-8.8774-2.2182zm-2e-3 0.99669c2.1594 0.0034 5.3403 0.4473 8.155 2.0352 2.8096 1.5851 5.301 4.3008 6.1474 8.9981 0.0438 21.4-0.0786 42.802-0.0613 64.206-4.0412-0.041-10.963 0.01-11.012 0.0104-5.9679-0.31292-11.978-5.3344-12.034-10.815 0 0-0.0128-15.413-0.0678-20.939l-1.2348-0.11849-10.068 31.864-22.238 0.0227-10.027-31.838-1.2325 0.12198 0.03941 31.72-23.129 5e-3 -0.1226-74.802 32.563-0.24743 13.206 39.544c4.3729-13.24 8.7404-26.483 13.131-39.717z" fill="#fff" stroke-linecap="square"/>
  <path d="m110.99 64.677-7.5302 22.763 16.62 0.12247-0.13653 40.34c-0.55064 7.3287 6.4915 12.809 13.511 12.865 3.6589-0.0475 7.3506-0.0104 11.011-7.8e-4l0.14829-63.703c-0.30417-7.3083-6.6924-12.175-13.995-12.446z" fill="#c10007" stroke-linecap="round"/>
  <path d="m130.63 64.059-20.041 0.06055-7.8965 23.873 16.83 0.125-0.13477 39.783 2e-3 -0.0391c-0.28943 3.8521 1.4269 7.2298 4.1016 9.6172 2.6746 2.3874 6.3076 3.8183 9.9609 3.8476h0.012c3.8534-0.0539 7.707 0 11.561 0l0.15039-64.273v-0.01172c-0.31725-7.6226-6.9949-12.701-14.533-12.98zm-0.0293 1.1172c7.0671 0.2619 13.166 4.9181 13.457 11.912l-0.14648 63.121c-3.4718-0.0115-6.9714-0.045-10.449 0-3.3657-0.027-6.763-1.3654-9.2266-3.5644-2.4636-2.199-3.9936-5.2246-3.7324-8.7012l2e-3 -0.0195 0.13867-40.916-16.41-0.12109 7.1621-21.652z" fill="#fff" stroke-linecap="round"/>
 </g>
</svg>
